<svg xmlns="http://www.w3.org/2000/svg" width="20" height="20" viewBox="0 0 20 20">
    <title>qq</title>
    <path d="M11.8841 17.1943C11.1815 17.1943 10.5625 17.2136 10.0541 17.26C9.44625 17.2112 8.8365 17.1898 8.22671 17.1956C6.20498 17.1956 4.40588 17.9613 4.40588 18.5263C4.40588 19.0681 5.89998 19.0076 7.91657 18.987C8.64426 18.985 9.3699 18.9096 10.0824 18.7618C10.6796 18.8879 11.4079 18.9677 12.193 18.9741C14.2095 18.9947 15.7024 19.0552 15.7024 18.5173C15.7024 17.9549 13.9045 17.1943 11.8841 17.1943V17.1943Z"/><path d="M16.9138 11.6311C16.5346 10.6112 16.1212 9.60428 15.6745 8.61206C15.6951 8.37141 15.7054 8.12818 15.7054 7.8811C15.7054 4.08086 13.7622 1 10.0649 1C6.36759 1 4.42307 4.08086 4.42307 7.8811C4.42307 8.11274 4.43208 8.34052 4.45138 8.56573C3.99804 9.5756 3.57913 10.6006 3.19536 11.6389C2.41678 13.7494 2.38203 15.6566 2.65357 15.7982C2.84661 15.8985 3.54797 15.1611 4.21845 13.9669C4.66115 16.7801 6.53102 18.8842 10.0649 18.8842C13.5871 18.8842 15.457 16.7916 15.9074 13.99C16.5728 15.1611 17.2664 15.8818 17.4569 15.7814C17.7284 15.6399 17.6937 13.7365 16.9138 11.6311V11.6311Z" />
    <path d="M8.5542 3.2522C8.00598 3.26507 7.57358 3.90981 7.58902 4.69739C7.60447 5.48369 8.06132 6.11299 8.60954 6.1027C9.15776 6.0924 9.59016 5.44637 9.57472 4.65879C9.56056 3.87249 9.10243 3.24319 8.5542 3.25348V3.2522ZM11.5862 3.26764C11.0315 3.25734 10.5695 3.88278 10.5541 4.66651C10.5386 5.44895 10.9749 6.0924 11.5308 6.1027C12.0842 6.11299 12.5475 5.48755 12.5629 4.70512C12.5784 3.92139 12.1408 3.27794 11.5862 3.26764V3.26764Z" />
    <path d="M13.6704 9.57861C12.5971 9.76521 11.354 9.87074 10.0285 9.87074C8.7287 9.87074 7.50742 9.76779 6.44959 9.58762C5.71605 10.4962 5.65942 11.8307 5.65942 13.3184C5.65942 16.0505 7.20371 18.2665 10.0645 18.2665C12.924 18.2665 14.4696 16.0505 14.4696 13.3184C14.4696 11.8243 14.4104 10.4859 13.6704 9.57861V9.57861Z"/>
    <path d="M16.9138 11.6311C16.5346 10.6112 16.1212 9.60428 15.6745 8.61206C15.6951 8.37141 15.7054 8.12818 15.7054 7.8811C15.7054 4.08086 13.7622 1 10.0649 1C6.36759 1 4.42307 4.08086 4.42307 7.8811C4.42307 8.11274 4.43208 8.34052 4.45138 8.56573C3.99804 9.5756 3.57913 10.6006 3.19536 11.6389C2.41678 13.7494 2.38203 15.6566 2.65357 15.7982C2.84661 15.8985 3.54797 15.1611 4.21845 13.9669C4.66115 16.7801 6.53102 18.8842 10.0649 18.8842C13.5871 18.8842 15.457 16.7916 15.9074 13.99C16.5728 15.1611 17.2664 15.8818 17.4569 15.7814C17.7284 15.6399 17.6937 13.7365 16.9138 11.6311V11.6311Z"/>
</svg>