<svg xmlns="http://www.w3.org/2000/svg" width="20" height="20" viewBox="0 0 20 20"><title>wechat</title><path fill-rule="evenodd" clip-rule="evenodd" d="M13.5578 5.34061C12.0476 2.85722 8.90911 1.73257 6.11813 2.05358C4.56413 2.23231 3.0449 2.85861 1.88463 3.92471C1.00689 4.72863 0.354462 5.78486 0.109889 6.95889C-0.187864 8.37395 0.125815 9.85314 0.957723 11.0298C1.28982 11.4994 1.68479 11.9193 2.11951 12.2941C2.25136 12.4079 2.38694 12.5172 2.52543 12.6228C2.59301 12.6742 2.66115 12.7249 2.73011 12.7745C2.74195 12.7831 2.75392 12.7902 2.76512 12.7969C2.80389 12.8201 2.83351 12.8378 2.81653 12.8887L2.67458 13.3177C2.53986 13.7252 2.40492 14.1325 2.26998 14.5399C2.22084 14.6883 2.17169 14.8366 2.12256 14.985L2.61572 14.7368C2.85714 14.6151 3.09863 14.4935 3.34012 14.3719C3.58099 14.2507 3.82186 14.1294 4.06266 14.0081L4.40902 13.8337C4.42474 13.8257 4.44104 13.8164 4.45775 13.8069C4.51759 13.7728 4.58265 13.7356 4.64501 13.7481C4.76613 13.7723 4.88708 13.7972 5.00801 13.8221C5.08094 13.8372 5.15386 13.8522 5.22681 13.867C6.06287 14.0373 6.88508 14.1348 7.73859 14.0675C7.4486 13.0669 7.44915 12.0016 7.7559 11.0045C8.09853 9.88624 8.81438 8.89831 9.74448 8.19773C11.0171 7.23915 12.6431 6.81493 14.2212 6.99199C14.0895 6.4081 13.8688 5.85148 13.5578 5.34061ZM4.77922 5.02147C4.28094 5.02147 3.71299 5.35514 3.71299 5.90829C3.71299 6.46088 4.28066 6.79844 4.77922 6.79844C5.29233 6.79844 5.66293 6.42291 5.66293 5.90829C5.66293 5.39311 5.29205 5.02147 4.77922 5.02147ZM10.6158 5.90829C10.6158 6.42444 10.2434 6.79844 9.7296 6.79844C9.23076 6.79844 8.66641 6.46032 8.66641 5.90829C8.66641 5.3557 9.23104 5.02147 9.7296 5.02147C10.2431 5.02147 10.6158 5.39158 10.6158 5.90829ZM17.7911 8.53846C15.3552 6.80489 11.734 6.93368 9.53048 9.01108C8.77779 9.72181 8.22909 10.6485 8.04061 11.6744C7.78288 13.0799 8.22536 14.5441 9.17304 15.605C10.0674 16.6063 11.2889 17.2564 12.5986 17.5166C13.4216 17.6806 14.2559 17.6931 15.0799 17.5344C15.2863 17.4948 15.4911 17.4481 15.6954 17.3986C15.7826 17.3774 15.8697 17.3559 15.9568 17.334C15.9655 17.3319 15.9784 17.3272 15.9934 17.3219C16.0359 17.3068 16.0949 17.2858 16.118 17.2984C16.2476 17.3695 16.3771 17.4408 16.5066 17.5122L17.0557 17.8142L17.0577 17.8153L17.0598 17.8164C17.3912 17.9986 17.7227 18.1809 18.054 18.3634C17.9748 18.0977 17.895 17.832 17.8153 17.5664L17.8146 17.5641L17.6749 17.0981L17.5814 16.7863L17.5332 16.6257C17.5159 16.5675 17.5927 16.5183 17.6556 16.4779C17.6753 16.4653 17.6937 16.4535 17.7073 16.4426C18.0608 16.1622 18.3952 15.8558 18.6963 15.5191C19.1832 14.9747 19.5895 14.3498 19.8161 13.6505C20.0122 13.039 20.0488 12.392 19.9377 11.7604C19.7098 10.438 18.8643 9.30511 17.7911 8.53846ZM15.2396 11.0049C15.1595 10.6088 15.5334 10.1787 15.931 10.1787C16.3063 10.1787 16.7409 10.3931 16.8096 10.7989C16.8724 11.1695 16.556 11.4696 16.227 11.5617C15.8032 11.6802 15.3326 11.4649 15.2396 11.0049ZM12.0348 10.1787C11.6369 10.1787 11.2573 10.6064 11.3385 11.0049C11.4325 11.4667 11.9081 11.68 12.3327 11.5617C12.6626 11.4696 12.9753 11.1695 12.9134 10.7989C12.8453 10.3914 12.4112 10.1787 12.0348 10.1787Z"/></svg>