<svg xmlns="http://www.w3.org/2000/svg" width="20" height="20" viewBox="0 0 20 20"><title>weibo</title><path fill-rule="evenodd" clip-rule="evenodd" d="M-0.000244141 13.0984C-0.000244141 8.70757 6.6145 3.5004 9.18008 4.57052C10.1717 4.98415 9.97381 6.1693 9.85415 6.88576C9.8069 7.16863 9.77186 7.37844 9.82705 7.43887C9.92921 7.55074 10.2955 7.42054 10.7994 7.2414C11.8362 6.87286 13.4557 6.2972 14.5566 7.19617C15.2665 7.77576 14.9657 8.72382 14.7905 9.27603C14.7289 9.4701 14.6829 9.61528 14.7017 9.6784C14.741 9.81053 14.9858 9.91133 15.317 10.0477C15.926 10.2984 16.8269 10.6692 17.2784 11.5759C18.3716 13.7713 15.2036 18.2504 8.62234 18.2504C3.25024 18.2504 -0.000244141 15.6688 -0.000244141 13.0984ZM8.45309 17.057C11.7733 16.7393 14.2944 14.7397 14.0842 12.5908C13.874 10.4418 11.012 8.95732 7.69179 9.27503C4.37159 9.59274 1.85045 11.5924 2.06068 13.7413C2.2709 15.8902 5.13288 17.3747 8.45309 17.057Z"/><path fill-rule="evenodd" clip-rule="evenodd" d="M10.7098 12.7012C11.1162 14.1374 10.0604 15.6852 8.35157 16.1581C6.64275 16.6311 4.92801 15.8502 4.5216 14.4139C4.11518 12.9777 5.171 11.4299 6.87982 10.957C8.58865 10.484 10.3034 11.2649 10.7098 12.7012ZM7.67026 13.6265C7.89619 14.1072 7.61751 14.7092 7.04779 14.9711C6.47808 15.2331 5.83308 15.0558 5.60715 14.5751C5.38122 14.0945 5.6599 13.4925 6.22962 13.2306C6.79933 12.9686 7.44433 13.1459 7.67026 13.6265ZM8.41746 13.3766C8.63945 13.2745 8.74804 13.0399 8.66001 12.8526C8.57197 12.6654 8.32065 12.5963 8.09866 12.6984C7.87667 12.8004 7.76808 13.035 7.85612 13.2223C7.94415 13.4095 8.19547 13.4786 8.41746 13.3766Z"/><path d="M13.648 3.54836C13.9523 3.47388 14.2712 3.43418 14.6004 3.43418C16.7813 3.43418 18.5492 5.18267 18.5492 7.33955C18.5492 7.81593 18.4633 8.27085 18.3066 8.69104C18.168 9.06261 18.3602 9.47493 18.7359 9.61199C19.1116 9.74904 19.5285 9.55894 19.6671 9.18737C19.8822 8.61063 19.9993 7.98781 19.9993 7.33955C19.9993 4.3906 17.5822 2 14.6004 2C14.1528 2 13.717 2.05403 13.2996 2.15619C12.9109 2.25133 12.6738 2.64011 12.77 3.02455C12.8662 3.40899 13.2593 3.6435 13.648 3.54836Z" /><path d="M14.2887 6.05162C14.388 6.02824 14.4923 6.01569 14.6004 6.01569C15.3397 6.01569 15.939 6.6084 15.939 7.33955C15.939 7.49914 15.9108 7.65062 15.8596 7.7904C15.7232 8.16277 15.9179 8.57396 16.2944 8.70881C16.6709 8.84366 17.0867 8.65112 17.2231 8.27875C17.3307 7.98466 17.3891 7.66805 17.3891 7.33955C17.3891 5.81633 16.1406 4.58152 14.6004 4.58152C14.3784 4.58152 14.1614 4.60734 13.9529 4.65643C13.5633 4.74813 13.3227 5.1348 13.4154 5.52008C13.5082 5.90535 13.8991 6.14333 14.2887 6.05162Z" /></svg>