<svg xmlns="http://www.w3.org/2000/svg" width="20" height="20" viewBox="0 0 20 20"><title>immerse</title><path clip-rule="evenodd" fill-rule="evenodd" d="M0.25 1C0.25 0.585786 0.585786 0.25 1 0.25H4C4.41421 0.25 4.75 0.585786 4.75 1C4.75 1.41421 4.41421 1.75 4 1.75H1.75V4C1.75 4.41421 1.41421 4.75 1 4.75C0.585786 4.75 0.25 4.41421 0.25 4V1ZM0.25 19C0.25 19.4142 0.585786 19.75 1 19.75H4C4.41421 19.75 4.75 19.4142 4.75 19C4.75 18.5858 4.41421 18.25 4 18.25H1.75V16C1.75 15.5858 1.41421 15.25 1 15.25C0.585786 15.25 0.25 15.5858 0.25 16V19ZM19 0.25C19.4142 0.25 19.75 0.585786 19.75 1V4C19.75 4.41421 19.4142 4.75 19 4.75C18.5858 4.75 18.25 4.41421 18.25 4V1.75H16C15.5858 1.75 15.25 1.41421 15.25 1C15.25 0.585786 15.5858 0.25 16 0.25H19ZM19.75 19C19.75 19.4142 19.4142 19.75 19 19.75H16C15.5858 19.75 15.25 19.4142 15.25 19C15.25 18.5858 15.5858 18.25 16 18.25H18.25V16C18.25 15.5858 18.5858 15.25 19 15.25C19.4142 15.25 19.75 15.5858 19.75 16V19ZM7 5C5.89543 5 5 5.89543 5 7V13C5 14.1046 5.89543 15 7 15H13C14.1046 15 15 14.1046 15 13V7C15 5.89543 14.1046 5 13 5H7Z"/></svg>